<svg width="100" height="100" viewBox="0 0 16 16" xmlns="http://www.w3.org/2000/svg" aria-hidden="true">
  <path d="M8.636.53c-.135.12-1.185 2.204-1.185 2.204L6.67 5.885l3.04-.279S12.239.904 12.29.795c.091-.198.14-.279-.209-.279C11.732.515 8.762.417 8.636.53" fill="#176cc7"/>
  <path d="M10.21 5.411c-.151-.081-4.606-.151-4.711 0-.095.138-.081.766-.035.848s1.544.777 1.544.777l-.001.254s.083.199.917.199.921-.169.921-.169l.007-.256s1.311-.655 1.38-.713c.07-.059.129-.859-.022-.94M8.838 6.452s-.004-.175-.09-.219-1.475-.036-1.593-.03-.117.216-.117.216l-.95-.463v-.092l3.538.025.006.105z" fill="#fcc417"/>
  <path d="M7.407 6.396c-.117 0-.185.122-.185.334 0 .198.068.364.216.351.122-.01.165-.198.154-.364-.011-.198-.036-.321-.185-.321" fill="#fdffff"/>
  <path d="M3.623 11.34c0 2.995 2.708 4.329 4.508 4.265 1.985-.071 4.362-1.619 4.219-4.476-.137-2.708-2.415-3.991-4.387-3.978-2.292.016-4.34 1.573-4.34 4.189" fill="#fcc417"/>
  <path d="m8.066 15.084-.095-.001A3.88 3.88 0 0 1 5.43 14a3.66 3.66 0 0 1-1.117-2.674c.011-2.494 2.191-3.65 3.67-3.65h.013c2.004.009 3.649 1.566 3.695 3.678.02.94-.365 1.926-1.12 2.669-.705.691-1.64 1.061-2.504 1.061m-.086-6.992c-1.326 0-3.288 1.085-3.292 3.235-.004 1.607 1.241 3.26 3.315 3.33.79.025 1.604-.278 2.261-.924.682-.671 1.066-1.536 1.052-2.374A3.33 3.33 0 0 0 8 8.09l-.019.001" fill="#fa912c"/>
  <path d="M7.228 7.576c-.086-.119-1.064-.096-1.988.806-.891.871-.988 1.692-.816 1.74.194.054.43-.816 1.246-1.548.75-.67 1.73-.762 1.558-.999m3.781 3.234c-.301.043.011.945-.688 1.955-.606.876-1.294 1.194-1.214 1.386.107.258 1.209-.384 1.719-1.429.463-.946.407-1.945.182-1.913" fill="#fefffa"/>
  <path d="M6.981 9.627c-.065.096-.006.94.033.978.075.075.645-.194.645-.194l-.021 2.256s-.419-.005-.463.011c-.086.033-.075.902-.011.945s1.772.065 1.837-.021.049-.848.019-.882c-.054-.065-.463-.039-.463-.039s.035-3.322.024-3.429-.129-.172-.269-.14-1.29.453-1.331.515" fill="#fa912c"/>
  <path d="M3.189.465C3.11.537 6.122 5.9 6.122 5.9s.505.065 1.633.075 1.686-.065 1.686-.065S7.099.519 6.959.465C6.89.437 5.963.428 5.056.417S3.264.395 3.189.465" fill="#2e9df4"/>
</svg>
