<svg width="100" height="100" viewBox="0 0 16 16" xmlns="http://www.w3.org/2000/svg" aria-hidden="true">
  <path d="M8.636.53c-.135.12-1.185 2.204-1.185 2.204L6.67 5.885l3.04-.279S12.239.904 12.29.795c.091-.198.14-.279-.209-.279C11.732.515 8.762.417 8.636.53" fill="#176cc7"/>
  <path d="M10.21 5.411c-.151-.081-4.606-.151-4.711 0-.095.138-.041.859-.005.945.065.15 1.504.804 1.504.804l-.028.297s.117.03.954.03 1.001-.043 1.001-.043l.003-.269s1.295-.63 1.36-.718c.055-.072.074-.966-.077-1.048m-1.326 1.14s.041-.184-.045-.226c-.086-.044-1.566-.024-1.684-.018s-.117.216-.117.216l-.95-.566v-.092l3.538.025.006.105z" fill="#cecdd2"/>
  <path d="M7.407 6.396c-.117 0-.185.122-.185.334 0 .198.068.364.216.351.122-.01.165-.198.154-.364-.011-.198-.036-.321-.185-.321" fill="#fdffff"/>
  <path d="M3.621 11.486c0 2.995 2.756 4.266 4.558 4.213 2.099-.063 4.314-1.655 4.17-4.513-.136-2.707-2.433-3.911-4.405-3.897-2.292.018-4.322 1.581-4.322 4.197" fill="#cecdd2"/>
  <path d="m8.066 15.141-.095-.001a3.88 3.88 0 0 1-2.541-1.083 3.66 3.66 0 0 1-1.117-2.674c.011-2.494 2.191-3.65 3.67-3.65h.013c2.004.009 3.649 1.566 3.695 3.678.02.94-.365 1.926-1.12 2.669-.705.691-1.64 1.061-2.504 1.061m-.086-6.992c-1.326 0-3.288 1.085-3.292 3.235-.004 1.607 1.241 3.26 3.315 3.33.79.025 1.604-.278 2.261-.924.682-.671 1.066-1.536 1.052-2.374a3.337 3.337 0 0 0-3.32-3.27z" fill="#9b9b9d"/>
  <path d="M7.261 7.684c-.086-.119-.97-.085-1.921.734-.945.814-1.086 1.714-.916 1.761.194.054.43-.816 1.246-1.548.75-.669 1.762-.711 1.591-.948m3.724 3.282c-.301.043.011.945-.688 1.955-.606.876-1.294 1.194-1.214 1.386.107.258 1.209-.384 1.719-1.429.461-.945.406-1.944.182-1.913" fill="#fefffa"/>
  <path d="M3.189.465C3.11.537 6.122 5.9 6.122 5.9s.505.065 1.633.075 1.686-.065 1.686-.065S7.099.519 6.959.465C6.89.437 5.963.428 5.056.417S3.264.395 3.189.465" fill="#2e9df4"/>
  <path d="M7.106 10.794c.13.001.246-.175.354-.282.229-.23.469-.412.743-.165.672.61-.678 1.231-1.19 2.078-.383.632-.46 1.119-.354 1.249s2.692.124 2.728.059.071-.931.011-.973-1.331-.018-1.331-.018.106-.247.542-.625c.479-.414.863-.983.76-1.655-.212-1.39-1.613-1.441-2.219-.958-.591.471-.464 1.284-.044 1.289" fill="#9b9b9d"/>
</svg>
