<svg width="100" height="100" viewBox="0 0 16 16" xmlns="http://www.w3.org/2000/svg" aria-hidden="true">
  <path d="M8.636.53c-.135.12-1.185 2.204-1.185 2.204L6.67 5.885l3.04-.279S12.239.904 12.29.795c.091-.198.14-.279-.209-.279C11.732.515 8.762.417 8.636.53" fill="#176cc7"/>
  <path d="M10.21 5.411c-.151-.081-4.606-.151-4.711 0-.095.138-.041.859-.005.945.065.15 1.504.804 1.504.804l-.028.297s.117.03.954.03 1.001-.043 1.001-.043l.003-.269s1.295-.63 1.36-.718c.055-.072.074-.966-.077-1.048m-1.326 1.14s.041-.184-.045-.226c-.086-.044-1.566-.024-1.684-.018s-.117.216-.117.216l-.932-.48-.018-.179 3.538.025-.013.169z" fill="#f79429"/>
  <path d="M7.407 6.486c-.117 0-.185.122-.185.334 0 .198.068.364.216.351.122-.01.165-.198.154-.364-.011-.199-.036-.321-.185-.321" fill="#fdffff"/>
  <path d="M3.664 11.511c0 2.995 2.714 4.241 4.515 4.188 2.099-.063 4.356-1.655 4.17-4.513-.175-2.681-2.433-3.911-4.405-3.897-2.292.018-4.28 1.606-4.28 4.223" fill="#f79429"/>
  <path d="m8.084 15.246-.095-.001a3.88 3.88 0 0 1-2.541-1.083 3.66 3.66 0 0 1-1.117-2.674c.011-2.494 2.191-3.65 3.67-3.65h.013c2.004.009 3.649 1.566 3.695 3.678.02.94-.28 1.875-1.035 2.618-.705.69-1.725 1.113-2.589 1.113m-.086-6.992c-1.326 0-3.288 1.085-3.292 3.235-.004 1.607 1.241 3.26 3.315 3.33a3.24 3.24 0 0 0 2.337-.912 3.26 3.26 0 0 0 .975-2.384 3.33 3.33 0 0 0-3.317-3.269c-.004-.003-.014 0-.018 0" fill="#d25116"/>
  <path d="M7.261 7.684c-.086-.119-.97-.085-1.921.734-.945.814-1.086 1.714-.916 1.761.194.054.43-.816 1.246-1.548.75-.669 1.762-.711 1.591-.948m3.799 3.271c-.301.043.011.945-.688 1.955-.606.876-1.294 1.194-1.214 1.386.107.258 1.209-.384 1.719-1.429.461-.946.406-1.945.182-1.913" fill="#fefffa"/>
  <path d="M3.189.465C3.11.537 6.122 5.9 6.122 5.9s.505.065 1.633.075 1.686-.065 1.686-.065S7.099.519 6.959.465C6.89.437 5.963.428 5.056.417S3.264.395 3.189.465" fill="#2e9df4"/>
  <path d="M9.369 10.464c-.145-1.256-1.607-1.361-2.214-.879-.59.47-.534 1.125-.12 1.201.326.06.411-.199.506-.318.215-.266.557-.291.781-.077.254.244.098.826-.284.85-.284.018-.427.003-.464.051-.051.069-.044.61.009.67.06.069.3.026.506.034.284.011.585.431.386.746-.206.326-.755.18-.953-.018-.261-.261-.522-.111-.61-.009-.138.163-.284.532.224.892.506.36 2.042.429 2.353-.686.27-.974-.36-1.374-.36-1.374s.321-.369.239-1.085" fill="#d25116"/>
</svg>
