<svg width="40" height="40" viewBox="0 0 1.2 1.2" xmlns="http://www.w3.org/2000/svg"><g fill="none"><path d="M1.2 0v1.2H0V0zM.63 1.163H.629l-.004.002H.623l-.004-.002H.618v.001l-.001.021v.001l.001.001.005.004h.002l.005-.004.001-.001v-.001zl-.001-.001m.013-.006H.641l-.009.005-.001.001v.001l.001.022v.001l.01.005h.001V1.19l-.002-.03-.001-.001m-.036 0H.603v.001l-.002.031.001.001h.001l.01-.005h.001v-.001l.001-.022v-.001l-.001-.001z"/><path d="M.65.15a.05.05 0 0 1 .006.1H.25v.7h.7v-.4a.05.05 0 0 1 .1-.006V.95a.1.1 0 0 1-.093.1H.25a.1.1 0 0 1-.1-.093V.25a.1.1 0 0 1 .093-.1H.25zm.312.017a.05.05 0 0 1 .075.066l-.004.005-.495.495A.05.05 0 0 1 .463.667L.467.662z" fill="currentColor"/></g></svg>