<svg xmlns="http://www.w3.org/2000/svg" fill="currentColor" width="30" height="30" viewBox="119.4 119.4 30 30" xml:space="preserve"><path d="M145.975 122.775h-23.15a3.43 3.43 0 0 0-3.425 3.425v16.4a3.43 3.43 0 0 0 3.425 3.425h23.15a3.43 3.43 0 0 0 3.425-3.425v-16.4a3.43 3.43 0 0 0-3.425-3.425m-11.575 21.45h-11.575a1.627 1.627 0 0 1-1.625-1.625v-16.4c0-.896.729-1.625 1.625-1.625H134.4zm12.387-13.406c-.082 1.372-.85 4.089-3.13 5.977.692.153 1.444.236 2.238.236v1.8c-1.583 0-3.036-.288-4.27-.799-1.153.495-2.545.799-4.219.799v-1.8q1.156 0 2.155-.225c-1.262-1.052-2.007-2.447-2.007-4.017h1.8c0 1.329.849 2.478 2.233 3.243a6.6 6.6 0 0 0 1.825-1.553 7.46 7.46 0 0 0 1.463-3.006h-7.468v-1.8h3.345v-1.798h1.8v1.799h3.158c.298 0 .585.125.789.342a1.08 1.08 0 0 1 .29.802"/><path d="m125.855 137.139-.667 1.689h-2.396l3.953-9.164h2.396l3.862 9.164h-2.487l-.654-1.689zm2.016-5.158-1.335 3.391h2.644z"/></svg>