<svg width="100" height="100" viewBox="0 0 3 3" fill="none" xmlns="http://www.w3.org/2000/svg">
  <path d="M2.235 2.325a0.3 0.3 0 1 1 -0.6 0 0.3 0.3 0 0 1 0.6 0M1.185 1.5a0.3 0.3 0 1 1 -0.6 0 0.3 0.3 0 0 1 0.6 0m1.05 -0.825a0.3 0.3 0 1 1 -0.6 0 0.3 0.3 0 0 1 0.6 0" fill="none" fill-opacity=".15"/>
  <path d="M2.31 2.317H2.625M0.585 1.5 0.375 1.506M0.585 1.5a0.3 0.3 0 1 0 0.6 0 0.3 0.3 0 0 0 -0.6 0Zm0.686 0.005H2.625m-1.025 -0.812H0.375m2.25 0h-0.315M0.375 2.317h1.225m0.635 0.008a0.3 0.3 0 1 1 -0.6 0 0.3 0.3 0 0 1 0.6 0Zm0 -1.65a0.3 0.3 0 1 1 -0.6 0 0.3 0.3 0 0 1 0.6 0Z" stroke="currentColor" stroke-width="0.1875" stroke-linecap="round"/>
</svg>