<svg width="80" height="80" fill="currentColor" viewBox="0 0 3.6 3.6" xmlns="http://www.w3.org/2000/svg"><path d="M3.316 1.913 1.958.555A.2.2 0 0 0 1.821.5h-.209l1.563 1.545-1.053 1.062a.193.193 0 0 0 .273 0l.921-.921a.193.193 0 0 0 0-.273"/><path d="M2.778 1.917 1.42.558A.2.2 0 0 0 1.283.5H.361a.193.193 0 0 0-.193.193v.922a.2.2 0 0 0 .057.136L1.584 3.11a.193.193 0 0 0 .273 0l.921-.921a.193.193 0 0 0 0-.272M.667 1.172A.173.173 0 1 1 .84 1a.173.173 0 0 1-.173.172"/><path fill="none" d="M0 0h3.6v3.6H0z"/></svg>