<svg width="200" height="150" viewBox="0 0 200 150" fill="none" xmlns="http://www.w3.org/2000/svg"><path opacity=".2" d="M26.639 75.952c-2.628.813-5.087 2.781-5.744 5.511-.751 3.138.981 6.3 1.231 9.523.808 10.557-13.859 18-11.767 28.374.831 4.123 4.189 7.156 7.5 9.662 5.3 4 11.182 7.536 17.7 8.534 9.886 1.517 20.214-2.941 29.823-.124 7.75 2.273 13.681 8.933 21.377 11.39 5.859 1.871 12.171 1.134 18.257.376 3.282-.407 6.72-.878 9.369-2.894 4.923-3.753 5.233-11.166 8.53-16.478 5.091-8.192 16.255-9.8 25.616-8.208s18.45 5.511 27.934 5.192a12.5 12.5 0 0 0 5.871-1.369c2.15-1.237 3.6-3.417 4.886-5.574a91.8 91.8 0 0 0 12.774-44.82c.055-2.72-.039-5.558-1.288-7.958-1.58-3.037-4.737-4.854-7.879-6.076-7.547-2.941-15.884-3.422-23.279-6.738-7.133-3.2-12.909-8.809-19.121-13.617A100.7 100.7 0 0 0 106.48 21.53c-3.567-.706-7.27-1.21-10.815-.4-4.084.939-7.6 3.545-10.77 6.352-8.421 7.465-15.17 16.675-22.93 24.856a131.5 131.5 0 0 1-17.42 15.381c-2.872 2.119-5.924 4.636-9.125 6.2-2.937 1.443-5.683 1.078-8.781 2.033" fill="#5E94C3"/><path d="M64.206 9.654s-8.085 10.738-2.3 23.253-10.081 32.625-10.081 32.625" stroke="#535461" stroke-width="2" stroke-miterlimit="10"/><path d="M67.663 5.636c-.642 2.763-3.715 4.41-3.715 4.41s-2.029-2.835-1.387-5.6 2.3-4.738 3.715-4.41 2.029 2.837 1.387 5.6" fill="#8ED16F"/><path d="M65.592 5.154c.202-.867.102-1.632-.224-1.708-.325-.076-.752.566-.954 1.434s-.102 1.632.223 1.708c.326.076.753-.566.955-1.434" fill="#8ED16F"/><path opacity=".3" d="M65.592 5.154c.202-.867.102-1.632-.224-1.708-.325-.076-.752.566-.954 1.434s-.102 1.632.223 1.708c.326.076.753-.566.955-1.434" fill="#000"/><path d="M66.275 17.913c-2.669.962-5.721-.724-5.721-.724s1.276-3.245 3.947-4.2 5.23-.628 5.721.724-1.276 3.238-3.947 4.2" fill="#8ED16F"/><path d="M65.508 15.783c.837-.303 1.424-.803 1.31-1.117s-.884-.323-1.722-.02c-.837.302-1.424.803-1.31 1.117s.884.323 1.722.02" fill="#8ED16F"/><path opacity=".3" d="M65.508 15.783c.837-.303 1.424-.803 1.31-1.117s-.884-.323-1.722-.02c-.837.302-1.424.803-1.31 1.117s.884.323 1.722.02" fill="#000"/><path d="M65.667 27.697c-2.669.962-5.721-.724-5.721-.724s1.276-3.245 3.947-4.2 5.23-.628 5.721.724-1.278 3.24-3.947 4.2" fill="#8ED16F"/><path d="M64.929 25.715c.838-.302 1.425-.801 1.312-1.116-.113-.314-.884-.324-1.722-.022-.839.301-1.426.8-1.313 1.115s.884.325 1.722.023" fill="#8ED16F"/><path opacity=".3" d="M64.929 25.715c.838-.302 1.425-.801 1.312-1.116-.113-.314-.884-.324-1.722-.022-.839.301-1.426.8-1.313 1.115s.884.325 1.722.023" fill="#000"/><path d="M68.725 39.298c-2.669.962-5.721-.724-5.721-.724s1.276-3.245 3.947-4.2 5.23-.628 5.721.724-1.277 3.244-3.947 4.2" fill="#8ED16F"/><path d="M67.99 37.324c.838-.302 1.425-.801 1.312-1.116-.113-.314-.884-.324-1.722-.023-.838.302-1.426.802-1.313 1.116s.884.325 1.723.023" fill="#8ED16F"/><path opacity=".3" d="M67.99 37.324c.838-.302 1.425-.801 1.312-1.116-.113-.314-.884-.324-1.722-.023-.838.302-1.426.802-1.313 1.116s.884.325 1.723.023" fill="#000"/><path d="M66.736 49.833c-2.669.962-5.721-.724-5.721-.724s1.276-3.245 3.947-4.2 5.23-.628 5.721.724-1.275 3.24-3.947 4.2" fill="#8ED16F"/><path d="M66.004 47.68c.837-.303 1.424-.803 1.31-1.117s-.884-.323-1.722-.02c-.837.302-1.424.803-1.31 1.117s.884.323 1.722.02" fill="#8ED16F"/><path opacity=".3" d="M66.004 47.68c.837-.303 1.424-.803 1.31-1.117s-.884-.323-1.722-.02c-.837.302-1.424.803-1.31 1.117s.884.323 1.722.02" fill="#000"/><path d="M54.4 20.689c1.971 2.042 5.454 1.883 5.454 1.883s.287-3.475-1.684-5.516-4.412-2.883-5.454-1.883-.287 3.478 1.684 5.516" fill="#8ED16F"/><path d="M57.457 19.967c.24-.232-.067-.94-.686-1.58-.62-.64-1.316-.972-1.556-.74-.24.233.067.94.686 1.58.62.641 1.316.972 1.556.74" fill="#8ED16F"/><path opacity=".3" d="M57.457 19.967c.24-.232-.067-.94-.686-1.58-.62-.64-1.316-.972-1.556-.74-.24.233.067.94.686 1.58.62.641 1.316.972 1.556.74" fill="#000"/><path d="M53.29 53.29c1.971 2.042 5.454 1.883 5.454 1.883s.287-3.475-1.684-5.516-4.412-2.883-5.454-1.883-.29 3.474 1.684 5.516" fill="#8ED16F"/><path d="M56.343 52.57c.24-.232-.067-.94-.686-1.58-.62-.64-1.316-.972-1.556-.74-.24.233.067.94.686 1.58.62.641 1.316.972 1.556.74" fill="#8ED16F"/><path opacity=".3" d="M56.343 52.57c.24-.232-.067-.94-.686-1.58-.62-.64-1.316-.972-1.556-.74-.24.233.067.94.686 1.58.62.641 1.316.972 1.556.74" fill="#000"/><path d="M55.871 32.25c2.54 1.268 5.767-.05 5.767-.05s-.889-3.37-3.427-4.638-5.121-1.255-5.767.05.887 3.37 3.427 4.638" fill="#8ED16F"/><path d="M58.499 30.537c.149-.299-.376-.864-1.174-1.261-.797-.398-1.564-.478-1.713-.18-.15.3.376.864 1.173 1.262s1.565.478 1.714.179" fill="#8ED16F"/><path opacity=".3" d="M58.499 30.537c.149-.299-.376-.864-1.174-1.261-.797-.398-1.564-.478-1.713-.18-.15.3.376.864 1.173 1.262s1.565.478 1.714.179" fill="#000"/><path d="M56.915 43.707c2.54 1.268 5.767-.05 5.767-.05s-.889-3.37-3.427-4.638-5.121-1.255-5.767.05.898 3.383 3.427 4.638" fill="#8ED16F"/><path d="M59.545 41.995c.149-.299-.376-.864-1.173-1.261-.797-.398-1.565-.478-1.714-.18-.15.3.376.864 1.173 1.262s1.564.478 1.714.179" fill="#8ED16F"/><path opacity=".3" d="M59.545 41.995c.149-.299-.376-.864-1.173-1.261-.797-.398-1.565-.478-1.714-.18-.15.3.376.864 1.173 1.262s1.564.478 1.714.179" fill="#000"/><path d="M26.301 33.258a35.26 35.26 0 0 1 6.43 36.68c-8.336 21.912 14.29 58.35 14.29 58.35s-.243-.036-.692-.115C15.997 122.82.935 88.133 17.796 62.364c6.261-9.58 11.417-20.816 8.505-29.106" fill="#8ED16F"/><path d="M0 92.983s16.85-2.684 18.386 12.417 32.4 17.2 32.4 17.2l-.579.385C24.722 139.72.359 133.641 4.031 111.427 5.4 103.161 5.286 94.867 0 92.983" fill="#8ED16F"/><path d="M0 92.983s16.85-2.684 18.386 12.417 32.4 17.2 32.4 17.2l-.579.385C24.722 139.72.359 133.641 4.031 111.427 5.4 103.161 5.286 94.867 0 92.983" fill="#fff" opacity=".3"/><path d="M22.036 92.558c2.56 0 4.634-5.413 4.634-12.09S24.595 68.38 22.036 68.38s-4.634 5.412-4.634 12.089 2.075 12.089 4.634 12.089" fill="#8ED16F"/><path opacity=".3" d="M22.036 92.558c2.56 0 4.634-5.413 4.634-12.09S24.595 68.38 22.036 68.38s-4.634 5.412-4.634 12.089 2.075 12.089 4.634 12.089" fill="#000"/><path d="M21.613 124.523c1.22-1.22.007-4.409-2.707-7.124s-5.904-3.926-7.124-2.706c-1.22 1.219-.008 4.408 2.707 7.123s5.904 3.926 7.124 2.707" fill="#8ED16F"/><path opacity=".3" d="M21.613 124.523c1.22-1.22.007-4.409-2.707-7.124s-5.904-3.926-7.124-2.706c-1.22 1.219-.008 4.408 2.707 7.123s5.904 3.926 7.124 2.707" fill="#000"/><path d="M149.79 56.058H40.104a5 5 0 0 0-5 5v64.29a5 5 0 0 0 5 5H149.79a5 5 0 0 0 3.536-1.464 5 5 0 0 0 1.464-3.536v-64.29a5 5 0 0 0-5-5" fill="url(#a)"/><path d="M128.561 56.932H61.318c-13.702 0-24.81 11.108-24.81 24.81v22.916c0 13.702 11.108 24.81 24.81 24.81h67.243c13.702 0 24.81-11.108 24.81-24.81V81.742c0-13.702-11.108-24.81-24.81-24.81" fill="#5E94C3"/><path d="M153.371 69.367H36.508v13.298h116.863z" fill="#5E94C3"/><path opacity=".3" d="M153.371 69.367H36.508v13.298h116.863z" fill="#000"/><path d="M142.244 92.611h-94.7v6.447h94.7z" fill="#D6D6E3"/><path d="M56.126 124.532a9.27 9.27 0 1 0 0-18.538 9.27 9.27 0 0 0 0 18.538" fill="#5E94C3"/><path opacity=".3" d="M56.126 124.532a9.27 9.27 0 1 0 0-18.538 9.27 9.27 0 0 0 0 18.538" fill="#000"/><path d="M144.625 39.046c.149.473.467.875.893 1.13 1.922 1.27 6.1 1 6.6 1 .107 0 .247.19.4.51a35.3 35.3 0 0 1 1.96 6.991c.1 1.215 1.232 6.9 3.081 9.022q.086.098.167.182c1.814 1.822 3.941-.182 3.941-.182l.3-1.061a51 51 0 0 0-.278 1.452c-.048.274-.1.565-.142.864a33 33 0 0 0-.433 5.1q-.007.93.08 1.858.025.258.059.506.142 1.13.138 2.268a61.7 61.7 0 0 1-1.165 10.1l.044-.015q-.042.21-.044.209l.067-.021q-.048.311-.092.638c-.389 2.824-.613 6.338-.72 8.368a17 17 0 0 0 .142 3.2l2.05 14.373v6.694a11.8 11.8 0 0 0 .368 3.008c.665 2.529.117 11.357-.19 15.545-.086 1.142-.153 1.941-.172 2.171v.069l.059-.023v.073q.131-.056.272-.079c-.81 1.255-2.276 3.33-3.4 3.68a3.6 3.6 0 0 0-1.7 1.128l-.029.04-.042.059a1.26 1.26 0 0 0-.245.64 1 1 0 0 1-.038-.123c-.086.467.2.893 1.075 1.1a7.3 7.3 0 0 0 1.558.126c3.054 0 8.474-.939 9.073-1.95v-3.485l.1.031v.031l.374.123 1.027-3.447c1.232-.912.209-17.235 0-20.986-.188-3.418 1.927-17.015 2.3-19.411l-.05-.061.057-.349q.113.082.209.184.185.22.32.473.266.45.454.937c2.067 5.154 3 19.894 3 21.216v13.866c-.004 1.368.186 2.73.565 4.044q.285 1.036.439 2.1c.044.278.082.554.117.818a58 58 0 0 1 .121.998.4.4 0 0 1 0 .086c.057.546.086.9.086.9a.2.2 0 0 1 .042-.082l.01.132a.3.3 0 0 1 .082-.13 2 2 0 0 1 .276-.226v1.761l-.05-.038v.3c2.13 1.607 5.6 2.092 8.257 2.073 1.22.059 2.441-.094 3.609-.452.694-.341.314-1.136-.318-1.745a2.4 2.4 0 0 0-1.531-.791c-.674.073-2.977-2.535-4.184-3.964l.136-.061.193-.084v-23.1s.31-9.125 1.232-18.149c.438-4.549-.1-9.139-1.579-13.463l-.029-.086.28.044c.3.046.456.073.456.073a2 2 0 0 0-.019-.209h.019s-.36-3.914-.364-8.83c0-5.573.471-12.367 2.418-16.212a11.4 11.4 0 0 0 1.464-5.364 5.6 5.6 0 0 0-1-3.431 2.7 2.7 0 0 0-1.153-.912l-.04-.023h-.021a2.9 2.9 0 0 0-1.059-.209h-4.215a2.8 2.8 0 0 1-1.389-.366l-1.646-.933a8.35 8.35 0 0 1-.51-4.077c0-.111.021-.222.031-.331l.119-.126c.092-.1.178-.209.262-.3a2 2 0 0 1-.019.247q-.03.2-.113.226a3.63 3.63 0 0 0 2.456-.989q.034-.04.065-.086.244-.398.4-.837.116-.3.307-.561c.138-.18.318-.326.466-.5l.025-.029a3.6 3.6 0 0 0 .565-2.347c.01-1.991-.048-4.184-1.381-5.677a6.28 6.28 0 0 0-4.548-1.768c-1.676-.054-3.347.247-5.021.255-1.138 0-2.51-.019-3.138.923-.307.462-.345 1.067-.68 1.51-.192.255-.487.475-.5.793a.8.8 0 0 0 .109.418v.015a2.96 2.96 0 0 0 2.167 1.454 5.5 5.5 0 0 0-1.242 3.866 5.53 5.53 0 0 0 1.753 3.684q-.024.176-.052.349l.038.033q.178.16.37.3l.046.036v.209q.003.182-.013.364c-.013.119 0 .192-.013.289l-.027-.023-2.044-1.707-3.286-3.042s-8.217-5.981-8.629-3.138c-.05.505.09 1.01.391 1.418 1.508 2.3 6.694 4.259 6.694 4.259a44 44 0 0 1 5.161 6.794q-.108.06-.224.113a9.7 9.7 0 0 1-4.527.494c-3.1.483-3.383 3.883-3.366 5.257v.285l-4.117-9.667-.013-.029a2.03 2.03 0 0 0-1.54-1.209c-2.751-.456-9.631-1.42-9.055.611m17.235 93.922q.09-.021.182-.033l-.019.029z" fill="url(#b)"/><path d="M182.428 130.995s3.9 4.9 4.8 4.8 3 1.9 1.8 2.51-8.1 1-11.505-1.6v-3.918zm-19.083.299s-2.3 4.1-3.9 4.6-3 2.3-.9 2.8 9.6-.6 10.3-1.8v-5.3z" fill="#ACA9C9"/><path d="m159.836 91.014 1.987 14.179v6.592c-.006 1 .115 1.997.36 2.966.649 2.5.115 11.2-.186 15.333-.1 1.347-.174 2.209-.174 2.209 1.3-.6 6.8 1.3 6.8 1.3l.556-1.893.444-1.506c1.2-.9.209-17 0-20.71-.136-2.533.994-10.746 1.717-15.668.209-1.391.379-2.51.481-3.184l.1-.651c.221.18.404.401.54.651q.259.445.441.925c2.012 5.085 2.929 19.624 2.929 20.919v13.673a14.4 14.4 0 0 0 .55 3.989c.248.946.429 1.909.542 2.88.142 1.086.209 1.96.209 1.96.1-.6 6.3-3.3 6.3-3.3v-22.8s.3-9 1.2-17.9a31.9 31.9 0 0 0-1.864-14.189 19 19 0 0 0-.628-1.51h-20.421c-.343.065-.628.755-.885 1.8a26 26 0 0 0-.441 2.51c-.379 2.784-.6 6.251-.7 8.255a16.7 16.7 0 0 0 .143 3.17" fill="#208EEF"/><path d="M183.076 131.742v-22.8s.3-9 1.2-17.9a31.2 31.2 0 0 0-2.51-15.7h.4a31.4 31.4 0 0 1 2.51 15.7c-.889 8.9-1.2 17.9-1.2 17.9v22.8s-6.2 2.7-6.3 3.3a3 3 0 0 0-.031-.364c1.92-1.09 3.9-2.07 5.931-2.936m-20.652.489a1.6 1.6 0 0 0-.55.113v-.1q.275-.028.55-.013m6.851-1.987c1.2-.9.209-17 0-20.71s2.3-19.5 2.3-19.5q.198.152.345.356c-.368 2.36-2.427 15.775-2.245 19.145.209 3.7 1.2 19.8 0 20.71l-1 3.4-.364-.121z" opacity=".1" fill="#000"/><path d="m164.655 50.217-2.092 7.4s-2.2 2.092-4 0-2.908-7.7-3.017-8.9-1.7-7.4-2.3-7.4-6.6.4-7.3-2.092c-.561-2 6.138-1.046 8.819-.6a1.99 1.99 0 0 1 1.5 1.192l4.113 9.821s2.177-2.52 4.277.58m12.766-17.23s-2.6 7.3.7 9.9-11.8 3.3-11.8 3.3l2.05-1.95s1.45-5.751.45-10.551z" fill="#F7C4A7"/><path opacity=".1" d="M174.225 42.955s2.65-.651 2.65-1.349l2.349 1.349h5.9s4.3 2.4.7 9.6-2 24.893-2 24.893-12.8-2.3-23.4 1.2c0 0 1.6-7.9 1-12.4s1-10.8 1-10.8l.9-3.8s-.05-3.556-3.751-1.751c0 0-.55-5.15 3.251-5.751 0 0 4.393.6 5.7-1.6a6.68 6.68 0 0 0 5.701.409" fill="#000"/><path d="M174.224 42.757s2.65-.651 2.65-1.349l1.722.989c.411.236.877.36 1.351.36h4.127a2.72 2.72 0 0 1 2.211 1.125c.948 1.333 1.8 3.96-.46 8.476-3.6 7.2-2 24.893-2 24.893s-12.8-2.3-23.4 1.2c0 0 1.6-7.9 1-12.4s1-10.786 1-10.786l.9-3.8s-.05-3.556-3.751-1.751c0 0-.536-5.008 3.094-5.723q.152-.034.307-.021c.776.082 4.393.343 5.552-1.617a6.72 6.72 0 0 0 5.697.404" fill="#E14B5A"/><path opacity=".1" d="M184.326 51.827s-3.2 2-8.4 0c0 0-5.7-2.092-7.5-6.2s9.1.7 9.1.7a7.9 7.9 0 0 0 3-.5c.696-.499 5.599 3.799 3.8 6" fill="#000"/><path d="M184.326 51.388s-3.2 2-8.4 0c0 0-5.7-2.092-7.5-6.2s-6-8.608-6-8.608-7.3-2.8-6.9-5.6 8.4 3.1 8.4 3.1l3.2 3 10.4 8.8a7.9 7.9 0 0 0 3-.5c.696-.5 5.599 3.807 3.8 6.008" fill="#F7C4A7"/><path opacity=".1" d="m168.725 33.983 8.6-.7a19.7 19.7 0 0 0-.9 4.073 5.5 5.5 0 0 1-7.7.209 9.8 9.8 0 0 0 0-3.582" fill="#000"/><path d="M172.576 38.718a5.5 5.5 0 1 0 0-11 5.5 5.5 0 0 0 0 11" fill="#F7C4A7"/><path opacity=".1" d="M175.594 34.4c-.322-.53.333-1.223.117-1.8-.2-.535-.99-.627-1.255-1.127-.209-.4 0-.9-.084-1.345a1.39 1.39 0 0 0-1.326-.962 4.7 4.7 0 0 0-1.713.379 6.6 6.6 0 0 1-2.822.435 2.96 2.96 0 0 1-2.33-1.479.84.84 0 0 1-.107-.406c.017-.314.3-.53.492-.78.326-.437.364-1.033.661-1.489.607-.929 1.939-.906 3.048-.91 1.632 0 3.255-.3 4.887-.251a6.08 6.08 0 0 1 4.428 1.743c1.3 1.475 1.356 3.634 1.345 5.6a3.57 3.57 0 0 1-.55 2.316c-.151.182-.335.333-.479.519-.314.418-.4.954-.692 1.379a3.37 3.37 0 0 1-2.454 1.061c.268-.036.046-1.828 0-1.994-.176-.831-.367-.814-1.166-.888" fill="#000"/><path d="M175.594 34.201c-.322-.531.333-1.224.117-1.8-.2-.536-.99-.628-1.255-1.128-.209-.4 0-.9-.084-1.345a1.39 1.39 0 0 0-1.326-.962 4.7 4.7 0 0 0-1.713.379 6.6 6.6 0 0 1-2.822.435 2.96 2.96 0 0 1-2.33-1.479.84.84 0 0 1-.107-.406c.017-.314.3-.529.492-.78.326-.437.364-1.033.661-1.489.607-.929 1.939-.906 3.048-.91 1.632 0 3.255-.3 4.887-.251a6.08 6.08 0 0 1 4.428 1.743c1.3 1.475 1.356 3.634 1.345 5.6a3.57 3.57 0 0 1-.55 2.316c-.151.182-.335.333-.479.519-.314.418-.4.954-.692 1.379a3.38 3.38 0 0 1-2.454 1.061c.268-.036.046-1.828 0-1.994-.176-.842-.367-.815-1.166-.888" fill="#281C1C"/><path opacity=".1" d="M184.275 52.079s-2.7-7-4.8-7.2 4 0 4 0l2 3.6z" fill="#000"/><path d="M184.476 52.079s-2.7-7-4.8-7.2 4 0 4 0l2 3.6z" fill="#E14B5A"/><path d="M176.917 133.035c.142 1.086.209 1.96.209 1.96.1-.6 6.3-3.3 6.3-3.3v-1.625a3 3 0 0 0-.473.023 8.9 8.9 0 0 0-3.347 1.368 30 30 0 0 1-2.689 1.574" fill="#618FD8"/><path opacity=".3" d="M176.917 133.035c.142 1.086.209 1.96.209 1.96.1-.6 6.3-3.3 6.3-3.3v-1.625a3 3 0 0 0-.473.023 8.9 8.9 0 0 0-3.347 1.368 30 30 0 0 1-2.689 1.574" fill="#000"/><path d="M161.824 132.294c1.3-.6 6.8 1.3 6.8 1.3l.556-1.893c-.96-.2-1.914-.437-2.851-.726a10 10 0 0 1-1.28-.473 9 9 0 0 0-.853-.4 4.4 4.4 0 0 0-2.2-.019c-.097 1.349-.172 2.211-.172 2.211" fill="#618FD8"/><path opacity=".3" d="M161.824 132.294c1.3-.6 6.8 1.3 6.8 1.3l.556-1.893c-.96-.2-1.914-.437-2.851-.726a10 10 0 0 1-1.28-.473 9 9 0 0 0-.853-.4 4.4 4.4 0 0 0-2.2-.019c-.097 1.349-.172 2.211-.172 2.211" fill="#000"/><path opacity=".4" d="M188.971 137.994a.6.6 0 0 0 .343-.4.59.59 0 0 1-.343.7c-1.2.6-8.1 1-11.505-1.6v-.3c3.411 2.6 10.305 2.201 11.505 1.6m-30.477.4c2.092.5 9.6-.6 10.3-1.8v.3c-.7 1.2-8.2 2.3-10.3 1.8-.858-.209-1.132-.628-1.046-1.086.067.338.381.619 1.046.786" fill="#fff"/><path opacity=".1" d="M170.074 65.248s-2.2-.7-2.8 0-5.732 2.343-5.732 2.343" fill="#000"/><path d="M146.031 37.668h10.7v-.226h-10.7zm0 .227h10.7v-.226h-10.7z" fill="#8ED16F"/><path opacity=".1" d="M146.031 37.895h10.7v-.226h-10.7z" fill="#000"/><path d="M146.031 38.122h10.7v-.226h-10.7z" fill="#8ED16F"/><path d="M146.031 38.346h10.7v-.226h-10.7z" fill="#8ED16F"/><path opacity=".1" d="M146.031 38.346h10.7v-.226h-10.7z" fill="#000"/><path d="M146.031 38.573h10.7v-.226h-10.7z" fill="#8ED16F"/><path d="M146.031 38.798h10.7v-.226h-10.7z" fill="#8ED16F"/><path opacity=".1" d="M146.031 38.798h10.7v-.226h-10.7z" fill="#000"/><path d="M146.031 39.024h10.7v-.226h-10.7z" fill="#8ED16F"/><path d="M146.031 39.249h10.7v-.226h-10.7z" fill="#8ED16F"/><path opacity=".1" d="M146.031 39.249h10.7v-.226h-10.7z" fill="#000"/><path d="M146.031 35.863h10.7v-.226h-10.7zm7.457-5.358 8.228 6.837.144-.174-8.228-6.837zm-7.357-3.613 8.228 6.837.144-.174-8.228-6.837z" fill="#8ED16F"/><path d="M146.031 36.087h10.7v-.226h-10.7z" fill="#8ED16F"/><path opacity=".1" d="M146.031 36.087h10.7v-.226h-10.7z" fill="#000"/><path d="M146.031 36.316h10.7v-.226h-10.7z" fill="#8ED16F"/><path d="M146.031 36.541h10.7v-.226h-10.7z" fill="#8ED16F"/><path opacity=".1" d="M146.031 36.541h10.7v-.226h-10.7z" fill="#000"/><path d="M146.031 36.765h10.7v-.226h-10.7zm0 .227h10.7v-.226h-10.7z" fill="#8ED16F"/><path opacity=".1" d="M146.031 36.992h10.7v-.226h-10.7z" fill="#000"/><path d="M146.031 37.217h10.7v-.226h-10.7zm0 .227h10.7v-.226h-10.7z" fill="#8ED16F"/><path opacity=".1" d="M146.031 37.444h10.7v-.226h-10.7z" fill="#000"/><path d="m144.781 46.228 3.833.712 1.388-7.472-3.834-.712z" fill="#8ED16F"/><path d="M148.243 43.023c.162-.87-.059-1.639-.493-1.72s-.917.559-1.078 1.428.06 1.638.494 1.719c.433.08.916-.559 1.077-1.427" fill="#8ED16F"/><path opacity=".1" d="M148.243 43.023c.162-.87-.059-1.639-.493-1.72s-.917.559-1.078 1.428.06 1.638.494 1.719c.433.08.916-.559 1.077-1.427" fill="#000"/><path d="m145.425 62.058 3.833.712 1.388-7.472-3.834-.712z" fill="#8ED16F"/><path d="M148.884 58.849c.162-.87-.059-1.639-.493-1.72s-.917.559-1.078 1.428.06 1.638.494 1.719c.433.08.916-.559 1.077-1.428" fill="#8ED16F"/><path opacity=".1" d="M148.884 58.849c.162-.87-.059-1.639-.493-1.72s-.917.559-1.078 1.428.06 1.638.494 1.719c.433.08.916-.559 1.077-1.428" fill="#000"/><path d="m131.812 23.178-1.856 3.427 6.68 3.618 1.856-3.428z" fill="#8ED16F"/><path d="M136.29 27.529c.212-.388-.247-1.047-1.025-1.471s-1.58-.453-1.791-.065c-.212.388.246 1.047 1.024 1.471s1.58.453 1.792.065" fill="#8ED16F"/><path opacity=".1" d="M136.29 27.529c.212-.388-.247-1.047-1.025-1.471s-1.58-.453-1.791-.065c-.212.388.246 1.047 1.024 1.471s1.58.453 1.792.065" fill="#000"/><path d="m117.418 91.105-1.856 3.427 6.68 3.618 1.856-3.428z" fill="#8ED16F"/><path d="M121.225 95.432c.21-.388-.249-1.043-1.026-1.464-.777-.42-1.577-.447-1.787-.06-.21.389.25 1.044 1.026 1.465.777.42 1.577.447 1.787.059" fill="#8ED16F"/><path opacity=".1" d="M121.225 95.432c.21-.388-.249-1.043-1.026-1.464-.777-.42-1.577-.447-1.787-.06-.21.389.25 1.044 1.026 1.465.777.42 1.577.447 1.787.059" fill="#000"/><path d="m108.611 35.05-1.856 3.427 6.68 3.618 1.856-3.428z" fill="#8ED16F"/><path d="M112.412 39.379c.21-.388-.249-1.043-1.026-1.464-.777-.42-1.577-.447-1.787-.06-.21.389.25 1.044 1.026 1.465.777.42 1.577.447 1.787.059" fill="#8ED16F"/><path opacity=".1" d="M112.412 39.379c.21-.388-.249-1.043-1.026-1.464-.777-.42-1.577-.447-1.787-.06-.21.389.25 1.044 1.026 1.465.777.42 1.577.447 1.787.059" fill="#000"/><path d="m119.649 23.177-1.856 3.427 6.68 3.618 1.856-3.428z" fill="#8ED16F"/><path d="M123.456 27.418c.21-.388-.249-1.043-1.026-1.464-.777-.42-1.577-.447-1.787-.06-.21.389.25 1.044 1.026 1.465.777.42 1.577.447 1.787.059" fill="#8ED16F"/><path opacity=".1" d="M123.456 27.418c.21-.388-.249-1.043-1.026-1.464-.777-.42-1.577-.447-1.787-.06-.21.389.25 1.044 1.026 1.465.777.42 1.577.447 1.787.059" fill="#000"/><path d="m130.756 37.184-3.876.425.828 7.555 3.876-.425z" fill="#8ED16F"/><path d="M129.364 42.775c.439-.048.716-.8.62-1.678s-.53-1.551-.969-1.503-.716.8-.62 1.678c.097.878.53 1.551.969 1.503" fill="#8ED16F"/><path opacity=".1" d="M129.364 42.775c.439-.048.716-.8.62-1.678s-.53-1.551-.969-1.503-.716.8-.62 1.678c.097.878.53 1.551.969 1.503" fill="#000"/><path d="m156.831 78.706-3.876.425.828 7.555 3.876-.425z" fill="#8ED16F"/><path d="M155.447 84.292c.439-.048.716-.8.62-1.678s-.53-1.551-.969-1.503-.716.8-.62 1.677c.097.879.53 1.552.969 1.504" fill="#8ED16F"/><path opacity=".1" d="M155.447 84.292c.439-.048.716-.8.62-1.678s-.53-1.551-.969-1.503-.716.8-.62 1.677c.097.879.53 1.552.969 1.504" fill="#000"/><path d="m115.783 53.293-1.856 3.427 6.68 3.618 1.856-3.428z" fill="#8ED16F"/><path d="M119.586 57.624c.21-.388-.249-1.043-1.026-1.464-.777-.42-1.577-.447-1.787-.06-.21.389.25 1.044 1.026 1.465.777.42 1.577.447 1.787.059" fill="#8ED16F"/><path opacity=".1" d="M119.586 57.624c.21-.388-.249-1.043-1.026-1.464-.777-.42-1.577-.447-1.787-.06-.21.389.25 1.044 1.026 1.465.777.42 1.577.447 1.787.059" fill="#000"/><path d="m99.24 48.458-1.856 3.427 6.68 3.618 1.856-3.428z" fill="#8ED16F"/><path d="M103.584 53.017c.212-.389-.247-1.047-1.025-1.471s-1.58-.454-1.791-.065c-.212.388.246 1.047 1.024 1.471s1.58.453 1.792.065" fill="#8ED16F"/><path opacity=".1" d="M103.584 53.017c.212-.389-.247-1.047-1.025-1.471s-1.58-.454-1.791-.065c-.212.388.246 1.047 1.024 1.471s1.58.453 1.792.065" fill="#000"/><path d="m93.942 129.908-1.856 3.427 6.68 3.618 1.856-3.428z" fill="#8ED16F"/><path d="M97.736 134.235c.21-.388-.25-1.043-1.026-1.464-.777-.421-1.577-.447-1.787-.059s.25 1.043 1.026 1.464c.777.42 1.577.447 1.787.059" fill="#8ED16F"/><path opacity=".1" d="M97.736 134.235c.21-.388-.25-1.043-1.026-1.464-.777-.421-1.577-.447-1.787-.059s.25 1.043 1.026 1.464c.777.42 1.577.447 1.787.059" fill="#000"/><path d="m89.153 131.228-.711 3.834 7.473 1.386.71-3.833z" fill="#8ED16F"/><path opacity=".05" d="m89.153 131.228-.711 3.834 7.473 1.386.71-3.833z" fill="#000"/><path d="M94.096 134.179c.08-.434-.559-.916-1.427-1.077-.87-.161-1.639.06-1.72.494-.08.433.56.916 1.428 1.077.869.161 1.639-.06 1.72-.494" fill="#8ED16F"/><path opacity=".1" d="M94.096 134.179c.08-.434-.559-.916-1.427-1.077-.87-.161-1.639.06-1.72.494-.08.433.56.916 1.428 1.077.869.161 1.639-.06 1.72-.494" fill="#000"/><path d="m89.84 133.527-.711 3.834 7.472 1.386.712-3.833z" fill="#8ED16F"/><path d="M94.781 136.478c.08-.434-.559-.916-1.427-1.077-.87-.162-1.639.059-1.72.493s.56.917 1.428 1.078c.869.161 1.639-.06 1.72-.494" fill="#8ED16F"/><path opacity=".1" d="M94.781 136.478c.08-.434-.559-.916-1.427-1.077-.87-.162-1.639.059-1.72.493s.56.917 1.428 1.078c.869.161 1.639-.06 1.72-.494" fill="#000"/><path d="m101.674 139.765-1.856 3.427 6.68 3.617 1.856-3.427z" fill="#8ED16F"/><path d="M105.474 144.092c.21-.388-.249-1.043-1.026-1.464s-1.577-.447-1.787-.059.25 1.043 1.026 1.464c.777.42 1.577.447 1.787.059" fill="#8ED16F"/><path opacity=".1" d="M105.474 144.092c.21-.388-.249-1.043-1.026-1.464s-1.577-.447-1.787-.059.25 1.043 1.026 1.464c.777.42 1.577.447 1.787.059" fill="#000"/><path d="m96.888 141.082-.711 3.834 7.472 1.386.712-3.833z" fill="#8ED16F"/><path opacity=".05" d="m96.888 141.082-.711 3.834 7.472 1.386.712-3.833z" fill="#000"/><path d="M101.832 144.033c.081-.434-.559-.916-1.427-1.077-.87-.162-1.639.059-1.72.493s.56.917 1.428 1.078c.869.161 1.639-.06 1.719-.494" fill="#8ED16F"/><path opacity=".1" d="M101.832 144.033c.081-.434-.559-.916-1.427-1.077-.87-.162-1.639.059-1.72.493s.56.917 1.428 1.078c.869.161 1.639-.06 1.719-.494" fill="#000"/><path d="m97.574 143.384-.711 3.834 7.472 1.386.712-3.833z" fill="#8ED16F"/><path d="M102.52 146.334c.081-.434-.558-.916-1.427-1.077-.869-.162-1.639.059-1.72.493s.56.917 1.428 1.078c.869.161 1.639-.06 1.719-.494" fill="#8ED16F"/><path opacity=".1" d="M102.52 146.334c.081-.434-.558-.916-1.427-1.077-.869-.162-1.639.059-1.72.493s.56.917 1.428 1.078c.869.161 1.639-.06 1.719-.494" fill="#000"/><path d="m113.276 133.413-1.856 3.427 6.68 3.618 1.856-3.428z" fill="#8ED16F"/><path d="M117.078 137.739c.21-.388-.249-1.043-1.026-1.464s-1.577-.447-1.787-.059.25 1.043 1.026 1.464c.777.42 1.577.447 1.787.059" fill="#8ED16F"/><path opacity=".1" d="M117.078 137.739c.21-.388-.249-1.043-1.026-1.464s-1.577-.447-1.787-.059.25 1.043 1.026 1.464c.777.42 1.577.447 1.787.059" fill="#000"/><path d="m108.489 134.731-.711 3.834 7.473 1.386.711-3.833z" fill="#8ED16F"/><path opacity=".05" d="m108.489 134.731-.711 3.834 7.473 1.386.711-3.833z" fill="#000"/><path d="M113.439 137.682c.081-.434-.559-.916-1.427-1.077-.869-.161-1.639.06-1.719.493-.081.434.558.917 1.427 1.078s1.639-.06 1.719-.494" fill="#8ED16F"/><path opacity=".1" d="M113.439 137.682c.081-.434-.559-.916-1.427-1.077-.869-.161-1.639.06-1.719.493-.081.434.558.917 1.427 1.078s1.639-.06 1.719-.494" fill="#000"/><path d="m109.175 137.033-.711 3.834 7.472 1.386.712-3.833z" fill="#8ED16F"/><path d="M114.127 139.984c.081-.434-.559-.916-1.427-1.077-.869-.161-1.639.06-1.719.493-.081.434.558.917 1.427 1.078s1.639-.06 1.719-.494" fill="#8ED16F"/><path opacity=".1" d="M114.127 139.984c.081-.434-.559-.916-1.427-1.077-.869-.161-1.639.06-1.719.493-.081.434.558.917 1.427 1.078s1.639-.06 1.719-.494" fill="#000"/><defs><linearGradient id="a" x1="94.947" y1="130.348" x2="94.947" y2="56.058" gradientUnits="userSpaceOnUse"><stop stop-color="gray" stop-opacity=".251"/><stop offset=".54" stop-color="gray" stop-opacity=".122"/><stop offset="1" stop-color="gray" stop-opacity=".102"/></linearGradient><linearGradient id="b" x1="595.103" y1="24.125" x2="595.103" y2="24.125" gradientUnits="userSpaceOnUse"><stop stop-color="gray" stop-opacity=".251"/><stop offset=".54" stop-color="gray" stop-opacity=".122"/><stop offset="1" stop-color="gray" stop-opacity=".102"/></linearGradient></defs></svg>